Get Him to the Greek (2010) 1080p X264 AC3+DTS Eng-NLSub


PLOT

A record company intern is hired to accompany out-of-control 
British rock star Aldous Snow to a concert at L.A.'s Greek Theater.

-------------------------------------------------------------------


MM:    http://www.moviemeter.nl/film/63184

IMDB:    http://www.imdb.com/title/tt1226229/

-------------------------------------------------------------------

INFO

Source......: 1080P BluRay 
FRAME RATE..: 23.976Fps 
VIDEO CODEC.: X264
AUDIO 1.....: AC3
AUDIO 2.....: DTS 
RESOLUTION..: 1920x1040
RUNTIME.....: 109 MINS 
GENERE......: Comedy
LANGUAGE....: English
SUBTITLES...: English & Dutch

-------------------------------------------------------------------

Thanks to bradje

Enjoy This Nice release

-------------------------------------------------------------------

Player info

D:\downloads\complete\Get Him To The Greek Unrated (2010) 1080P.X264.Eng.NLSub\Get Him To The Greek Unrated (2010) 1080P.X264\Get Him To The Greek Unrated (2010) 1080P.X264.Eng-NLSub.mkv
   General
      Complete name : D:\downloads\complete\Get Him To The Greek Unrated (2010) 1080P.X264.Eng.NLSub\Get Him To The Greek Unrated (2010) 1080P.X264\Get Him To The Greek Unrated (2010) 1080P.X264.Eng-NLSub.mkv
      Format : Matroska
      File size : 8.46 GiB
      Duration : 1h 53mn
      Overall bit rate : 10.6 Mbps
      Movie name : Get Him To The Greek Unrated (2010) 1080P.X264.NL.SUBBED.Bradje
      Encoded date : UTC 2010-09-21 14:05:33
      Writing application : mkvmerge v3.3.0 ('Language') built on Mar 24 2010 14:59:24
      Writing library : libebml v0.8.0 + libmatroska v0.9.0
   Video #1
      ID : 1
      Format : AVC
      Format/Info : Advanced Video Codec
      Format profile : Main@L5.0
      Format settings, CABAC : Yes
      Format settings, ReFrames : 8 frames
      Muxing mode : Container profile=Unknown@5.0
      Codec ID : V_MPEG4/ISO/AVC
      Duration : 1h 53mn
      Bit rate : 8 276 Kbps
      Nominal bit rate : 8 488 Kbps
      Width : 1 920 pixels
      Height : 1 040 pixels
      Display aspect ratio : 16:9
      Frame rate : 23.976 fps
      Resolution : 24 bits
      Colorimetry : 4:2:0
      Scan type : Progressive
      Bits/(Pixel*Frame) : 0.173
      Stream size : 6.58 GiB (78%)
      Title : x264
      Writing library : x264 core 98 r1649 c54c47d
      Encoding settings : cabac=1 / ref=9 / deblock=1:-2:-1 / analyse=0x1:0x131 / me=hex / subme=9 / psy=1 / psy_rd=1.00:0.15 / mixed_ref=1 / me_range=16 / chroma_me=1 / trellis=1 / 8x8dct=0 / cqm=0 / deadzone=21,11 / fast_pskip=1 / chroma_qp_offset=-3 / threads=6 / sliced_threads=0 / nr=0 / decimate=1 / interlaced=0 / constrained_intra=0 / bframes=5 / b_pyramid=1 / b_adapt=1 / b_bias=0 / direct=3 / weightb=1 / weightp=2 / keyint=250 / keyint_min=25 / scenecut=40 / intra_refresh=0 / rc_lookahead=50 / rc=2pass / mbtree=1 / bitrate=8488 / ratetol=1.0 / qcomp=0.60 / qpmin=10 / qpmax=51 / qpstep=4 / cplxblur=20.0 / qblur=0.5 / ip_ratio=1.40 / aq=1:1.50
      Language : English
   Audio #2
      ID : 2
      Format : AC-3
      Format/Info : Audio Coding 3
      Codec ID : A_AC3
      Duration : 1h 53mn
      Bit rate mode : Constant
      Bit rate : 640 Kbps
      Channel(s) : 6 channels
      Channel positions : Front: L C R, Surround: L R, LFE
      Sampling rate : 48.0 KHz
      Stream size : 521 MiB (6%)
      Title : AC3
      Language : English
   Audio #3
      ID : 3
      Format : DTS
      Format/Info : Digital Theater Systems
      Codec ID : A_DTS
      Duration : 1h 53mn
      Bit rate mode : Constant
      Bit rate : 1 510 Kbps
      Channel(s) : 6 channels
      Channel positions : Front: L C R, Surround: L R, LFE
      Sampling rate : 48.0 KHz
      Resolution : 24 bits
      Video delay : 10ms
      Stream size : 1.20 GiB (14%)
      Title : DTS
      Language : English
   Text #4
      ID : 4
      Format : UTF-8
      Codec ID : S_TEXT/UTF8
      Codec ID/Info : UTF-8 Plain Text
      Title : Subtitles
      Language : Dutch
   Text #5
      ID : 5
      Format : UTF-8
      Codec ID : S_TEXT/UTF8
      Codec ID/Info : UTF-8 Plain Text
      Title : Subtitles
      Language : English